<svg xmlns="http://www.w3.org/2000/svg" width="197" height="44.235" viewBox="0 0 197 44.235"><g transform="translate(-67 -23)"><g transform="translate(67 23)"><path d="M182.523,268.361l16.041-9.48-16.041-10.417Z" transform="translate(-182.523 -236.379)" fill="#f7bb4c"/><path d="M245.66,310.975,261.7,301.5,245.66,291.078Z" transform="translate(-227.507 -266.74)" fill="#202a34"/><path d="M245.66,226.329l16.041-9.48L245.66,206.432Z" transform="translate(-227.507 -206.432)" fill="#c2d2d7"/><g transform="translate(40.527 5.456)"><path d="M330.694,251.34a12.65,12.65,0,0,0,8.829,3.391,12.787,12.787,0,0,0,9.385-3.889q.5-.5.936-1.023l2.777.994a16.619,16.619,0,0,1-1.725,2.017,16.042,16.042,0,1,1-1.4-24q.7.585,1.4,1.286.263.263.5.526l-1.988,1.988Zm16.781-20.495a13.266,13.266,0,0,0-18.565,18.565Z" transform="translate(-323.473 -225.408)" fill="#f7bb4c"/><path d="M461.144,258.372l11.051-23.915h3.04l-14.092,29.5-14.092-29.5h3.04Z" transform="translate(-411.52 -231.855)" fill="#1d1d1b"/><path d="M580.073,234.457v28.71h-2.631v-28.71Z" transform="translate(-504.419 -231.855)" fill="#1d1d1b"/><path d="M634.49,246.085a21.243,21.243,0,0,1-4.649-3.1,6.617,6.617,0,0,1-2.017-4.853,6.7,6.7,0,0,1,2.017-4.9,6.593,6.593,0,0,1,4.853-2.032,6.419,6.419,0,0,1,4.736,1.871,5.808,5.808,0,0,1,1.813,4.181v.146l-2.28.906a5.669,5.669,0,0,0-1.389-3.333,3.865,3.865,0,0,0-2.88-1.111,4.259,4.259,0,0,0-3.011,7.28,20.494,20.494,0,0,0,3.1,2.222,24.415,24.415,0,0,1,5.321,3.625,8.523,8.523,0,1,1-12.045,12.06,7.647,7.647,0,0,1-2.485-5.482l2.6-.673a5.807,5.807,0,0,0,1.74,4.3,5.907,5.907,0,0,0,8.347-8.362A25.342,25.342,0,0,0,634.49,246.085Z" transform="translate(-538.711 -229.538)" fill="#1d1d1b"/><path d="M725.345,234.457v28.71h-2.631v-28.71Z" transform="translate(-607.922 -231.855)" fill="#1d1d1b"/><path d="M773.523,251.34a12.649,12.649,0,0,0,8.829,3.391,12.788,12.788,0,0,0,9.385-3.889q.5-.5.936-1.023l2.777.994a16.618,16.618,0,0,1-1.725,2.017,16.042,16.042,0,1,1-1.4-24q.7.585,1.4,1.286.263.263.5.526l-1.988,1.988ZM790.3,230.846a13.266,13.266,0,0,0-18.565,18.565Z" transform="translate(-638.977 -225.408)" fill="#1d1d1b"/></g></g></g></svg>